<?xml version="1.0" standalone="no"?>
<!DOCTYPE svg PUBLIC "-//W3C//DTD SVG 20010904//EN"
 "http://www.w3.org/TR/2001/REC-SVG-20010904/DTD/svg10.dtd">
<svg version="1.0" xmlns="http://www.w3.org/2000/svg"
 width="512.000000pt" height="512.000000pt" viewBox="0 0 512.000000 512.000000"
 preserveAspectRatio="xMidYMid meet">
<metadata>
Created by potrace 1.14, written by Peter Selinger 2001-2017
</metadata>
<g transform="translate(0.000000,512.000000) scale(0.100000,-0.100000)"
fill="#000000" stroke="none">
<path d="M2325 5113 c-154 -14 -326 -63 -465 -133 -190 -96 -238 -138 -821
-718 l-546 -543 -52 28 c-65 33 -134 35 -184 5 -18 -12 -78 -68 -133 -124
-128 -132 -149 -190 -103 -281 23 -45 551 -584 629 -642 61 -45 117 -59 173
-44 33 9 65 34 151 118 117 115 145 160 146 232 0 37 -7 58 -34 98 l-34 51 46
40 c101 86 229 129 325 109 50 -11 60 -19 317 -275 l265 -264 -817 -817 c-720
-722 -820 -825 -847 -880 -130 -262 -47 -575 190 -716 106 -62 181 -80 312
-75 117 6 171 21 262 76 22 13 406 389 852 835 l813 812 837 -836 c784 -781
842 -837 901 -863 87 -38 179 -51 256 -36 231 45 361 254 300 485 -8 33 -27
80 -41 105 -15 27 -348 368 -854 875 l-829 830 249 249 249 249 76 -13 c118
-20 329 -9 439 24 228 68 415 197 559 386 62 81 140 241 167 339 30 109 46
276 32 327 -16 59 -51 106 -94 127 -68 34 -81 26 -322 -213 -245 -243 -240
-240 -378 -240 -97 0 -178 26 -269 87 -88 58 -149 129 -200 231 -36 71 -42 93
-46 163 -3 47 1 105 8 138 12 55 17 60 230 276 162 164 219 228 224 251 15 70
-45 138 -143 164 -32 9 -70 9 -146 0 -254 -27 -468 -131 -642 -313 -130 -137
-218 -291 -264 -465 -27 -101 -36 -296 -19 -410 l12 -85 -248 -248 -249 -249
-257 257 -256 258 -13 60 c-8 35 -14 115 -13 195 1 118 4 145 27 216 35 107
86 182 188 280 197 188 304 231 599 243 205 9 240 20 240 74 -1 64 -54 95
-253 147 -164 42 -343 57 -502 43z m-1405 -4127 c119 -58 147 -220 57 -323
-128 -145 -367 -55 -367 138 0 101 61 179 158 205 56 14 92 10 152 -20z"/>
</g>
</svg>
